{"title":"Formula 1 2013 Spanish Grand Prix - Qualifying ","uid":8463224,"size":824726773,"categoryP":"video","categoryS":"tv_shows","magnet":"?xt=urn:btih:155b6af090650f98b1ac6755b356dd728f236b71&amp;dn=Formula+1+2013+Spanish+Grand+Prix+-+Qualifying+&amp;tr=udp%3A%2F%2Ftracker.openbittorrent.com%3A80&amp;tr=udp%3A%2F%2Fopen.demonii.com%3A1337&amp;tr=udp%3A%2F%2Ftracker.coppersurfer.tk%3A6969&amp;tr=udp%3A%2F%2Fexodus.desync.com%3A6969","seeders":0,"leechers":0,"uploader":"IAMH67","files":5,"time":1368293531,"description":"The commentary during qualifying is from Sky F1 with Martin Brundle and team and local commentary is by Greg Dust and team.\n\n\nDuration : 1h 36mn\n\nBit rate : 955 Kbps\n\n Width : 960 pixels\n\n Height : 540 pixels\n\n Display aspect ratio : 16:9\n\n Frame rate : 25.000 fps\n\nRound 5 of the 2013 Formula 1 World Championship from the Circuit de Catalunya in Barcelona\n\n This is a live stream capture of my feed, 1.5hrs of the coverage from Spain on Saturday. Adverts have been removed.\n\n This contains the full Qualifying including local buildup with pre-quali interviews and post quali interviews with top 3 qualifyers, and debrief by local hosts.\n\n Local commentary by Greg Rust, Daryl Beattie, with main commentary by Martin Brundle, David Croft, Natalie Pinkham and Ted Kravitz.\n\nTechnical Information:\n\nVideo\n\nID                             : 0\nFormat                         : MPEG-4 Visual\nFormat profile                 : Advanced Simple@L5\nFormat settings, BVOP          : 2\nFormat settings, QPel          : No\nFormat settings, GMC           : No warppoints\nFormat settings, Matrix        : Default (H.263)\nMuxing mode                    : Packed bitstream\nCodec ID                       : XVID\nCodec ID/Hint                  : XviD\nDuration                       : 1h 40mn\nBit rate                       : 911 Kbps\nWidth                          : 608 pixels\nHeight                         : 336 pixels\nDisplay aspect ratio           : 16:9\nFrame rate                     : 25.000 fps\nColor space                    : YUV\nChroma subsampling             : 4:2:0\nBit depth                      : 8 bits\nScan type                      : Progressive\nCompression mode               : Lossy\nBits/(Pixel*Frame)             : 0.178\nStream size                    : 657 MiB (83%)\nWriting library                : XviD 1.2.1 (UTC 2008-12-04)\n\nAudio\n\nID                             : 1\nFormat                         : MPEG Audio\nFormat version                 : Version 1\nFormat profile                 : Layer 3\nMode                           : Joint stereo\nMode extension                 : MS Stereo\nCodec ID                       : 55\nCodec ID/Hint                  : MP3\nDuration                       : 1h 40mn\nBit rate mode                  : Constant\nBit rate                       : 128 Kbps\nChannel(s)                     : 2 channels\nSampling rate                  : 48.0 KHz\nCompression mode               : Lossy\nStream size                    : 92.3 MiB (12%)\nAlignment                      : Aligned on interleaves\n\n\nScreens:\n &lt;a href=&quot;\nhttp://i.imgur.com/vjVfzNs.jpg&quot; rel=&quot;nofollow&quot; target=&quot;_NEW&quot;&gt;\nhttp://i.imgur.com/vjVfzNs.jpg&lt;/a&gt;\n &lt;a href=&quot;\nhttp://i.imgur.com/sIKkQrW.jpg&quot; rel=&quot;nofollow&quot; target=&quot;_NEW&quot;&gt;\nhttp://i.imgur.com/sIKkQrW.jpg&lt;/a&gt;\n &lt;a href=&quot;\nhttp://i.imgur.com/LX4Ogg4.jpg&quot; rel=&quot;nofollow&quot; target=&quot;_NEW&quot;&gt;\nhttp://i.imgur.com/LX4Ogg4.jpg&lt;/a&gt;","torrent":{"xt":"urn:btih:155b6af090650f98b1ac6755b356dd728f236b71","amp;dn":"Formula+1+2013+Spanish+Grand+Prix+-+Qualifying+","amp;tr":["udp%3A%2F%2Ftracker.openbittorrent.com%3A80","udp%3A%2F%2Fopen.demonii.com%3A1337","udp%3A%2F%2Ftracker.coppersurfer.tk%3A6969","udp%3A%2F%2Fexodus.desync.com%3A6969"],"infoHash":"155b6af090650f98b1ac6755b356dd728f236b71","infoHashBuffer":{"type":"Buffer","data":[21,91,106,240,144,101,15,152,177,172,103,85,179,86,221,114,143,35,107,113]},"announce":[],"urlList":[]}}